<?xml version="1.0" encoding="UTF-8" standalone="no"?>
<svg
   xmlns:dc="http://purl.org/dc/elements/1.1/"
   xmlns:cc="http://creativecommons.org/ns#"
   xmlns:rdf="http://www.w3.org/1999/02/22-rdf-syntax-ns#"
   xmlns:svg="http://www.w3.org/2000/svg"
   xmlns="http://www.w3.org/2000/svg"
   xmlns:sodipodi="http://sodipodi.sourceforge.net/DTD/sodipodi-0.dtd"
   xmlns:inkscape="http://www.inkscape.org/namespaces/inkscape"
   version="1.1"
   x="0px"
   y="0px"
   width="190.49997"
   height="33.437405"
   viewBox="1871 164.882 190.49997 33.437413"
   enable-background="new 1871 164.882 100 60"
   xml:space="preserve"
   id="svg2"
   inkscape:version="0.48.3.1 r9886"
   sodipodi:docname="logo.svg"><sodipodi:namedview
   pagecolor="#ffffff"
   bordercolor="#666666"
   borderopacity="1"
   objecttolerance="10"
   gridtolerance="10"
   guidetolerance="10"
   inkscape:pageopacity="0"
   inkscape:pageshadow="2"
   inkscape:window-width="1461"
   inkscape:window-height="721"
   id="namedview34"
   showgrid="false"
   fit-margin-top="0"
   fit-margin-left="0"
   fit-margin-right="0"
   fit-margin-bottom="0"
   inkscape:zoom="2"
   inkscape:cx="71.500003"
   inkscape:cy="12.617991"
   inkscape:window-x="0"
   inkscape:window-y="27"
   inkscape:window-maximized="0"
   inkscape:current-layer="svg2" /><style
   id="style4">
	.style0{
		fill:	#ffffff;
	}
</style><metadata
   id="metadata6"><rdf:RDF><cc:Work
       rdf:about=""><dc:format>image/svg+xml</dc:format><dc:type
         rdf:resource="http://purl.org/dc/dcmitype/StillImage" /><dc:title /></cc:Work></rdf:RDF></metadata><defs
   id="defs8" />
<path
   inkscape:connector-curvature="0"
   d="m 1871,164.882 h 11.057 v 5.5951 h -5.5951 v 22.24721 h 5.5951 v 5.5951 H 1871 V 164.882 z"
   class="style0"
   id="path10"
   style="fill:#000000" /><path
   inkscape:connector-curvature="0"
   d="m 1904.3042,164.882 h -11.057 v 5.5951 h 5.5951 v 22.24721 h -5.5951 v 5.5951 h 11.057 V 164.882 z"
   class="style0"
   id="path12"
   style="fill:#000000" /><path
   inkscape:connector-curvature="0"
   d="m 1926.2849,177.67081 c -1.7318,0 -3.0639,0.53287 -4.1297,1.5986 -0.9325,1.06574 -1.4654,2.66434 -1.4654,4.52937 0,1.86504 0.5329,3.46364 1.5986,4.52937 1.0658,1.06574 2.3979,1.73182 3.9965,1.73182 1.3322,0 2.6644,-0.39965 3.9966,-1.06573 l 0.5328,1.73182 c -1.4654,0.66608 -3.064,1.06573 -4.6626,1.06573 -2.2647,0 -4.1297,-0.66608 -5.5951,-2.13147 -1.4654,-1.46538 -2.1314,-3.46363 -2.1314,-5.86154 0,-2.53112 0.666,-4.52937 1.9982,-5.86153 1.3322,-1.46539 3.1972,-2.13147 5.7283,-2.13147 1.5986,0 3.1972,0.39965 4.6626,1.06573 l -0.5328,1.86504 c -1.3322,-0.66609 -2.6644,-1.06574 -3.9966,-1.06574"
   class="style0"
   id="path14"
   style="fill:#000000" /><path
   inkscape:connector-curvature="0"
   d="m 1943.7363,179.26941 c -0.9325,-1.06573 -2.1314,-1.73182 -3.73,-1.73182 -1.5986,0 -2.7976,0.53287 -3.7301,1.73182 -0.9325,1.06574 -1.3322,2.66434 -1.3322,4.52937 0,1.99826 0.3997,3.46364 1.3322,4.66259 0.9325,1.06574 2.1315,1.5986 3.7301,1.5986 1.5986,0 2.7975,-0.53286 3.73,-1.5986 0.9326,-1.06573 1.3322,-2.66433 1.3322,-4.66259 0,-1.99825 -0.3996,-3.46363 -1.3322,-4.52937 m 1.5986,10.39091 c -1.3321,1.46539 -3.0639,2.13147 -5.3286,2.13147 -2.2647,0 -3.9965,-0.66608 -5.3287,-2.13147 -1.3322,-1.46538 -1.9982,-3.46363 -1.9982,-5.86154 0,-2.3979 0.666,-4.39615 1.9982,-5.86153 1.3322,-1.46539 3.064,-2.13147 5.3287,-2.13147 2.2647,0 3.9965,0.66608 5.3286,2.13147 1.3322,1.46538 1.9983,3.46363 1.9983,5.86153 0,2.39791 -0.6661,4.39616 -1.9983,5.86154"
   class="style0"
   id="path16"
   style="fill:#000000" /><path
   inkscape:connector-curvature="0"
   d="m 1949.5979,176.20543 h 2.1315 l 0,2.79755 h 0 c 0.5328,-0.93252 1.3321,-1.73182 2.2646,-2.26469 0.9326,-0.53286 1.8651,-0.7993 2.9308,-0.7993 1.7318,0 3.064,0.53287 3.8633,1.5986 0.7993,1.06574 1.3322,2.79756 1.3322,5.06224 v 9.05874 h -2.1315 v -8.7923 c 0,-1.86504 -0.2664,-3.19721 -0.7993,-3.99651 -0.5329,-0.7993 -1.4654,-1.06573 -2.7976,-1.06573 -1.1989,0 -2.2646,0.53287 -3.1972,1.73182 -0.9325,1.06573 -1.3321,2.3979 -1.3321,3.9965 v 8.25944 h -2.1315 v -15.45315"
   class="style0"
   id="path18"
   style="fill:#000000" /><path
   inkscape:connector-curvature="0"
   d="m 1965.4507,176.20543 h 2.1315 l 0,2.79755 h 0 c 0.5328,-0.93252 1.3321,-1.73182 2.2646,-2.26469 0.9326,-0.53286 1.8651,-0.7993 2.9308,-0.7993 1.7318,0 3.064,0.53287 3.8633,1.5986 0.7993,1.06574 1.3322,2.79756 1.3322,5.06224 v 9.05874 h -2.1315 v -8.7923 c 0,-1.86504 -0.2664,-3.19721 -0.7993,-3.99651 -0.5329,-0.7993 -1.4654,-1.06573 -2.7976,-1.06573 -1.1989,0 -2.2646,0.53287 -3.1972,1.73182 -0.9325,1.06573 -1.4653,2.3979 -1.4653,3.9965 v 8.25944 h -2.1315 v -15.45315"
   class="style0"
   id="path20"
   style="fill:#000000" /><path
   inkscape:connector-curvature="0"
   d="m 1983.0353,184.7313 c 0,1.73182 0.5329,3.06399 1.4654,3.99651 0.9325,0.93251 2.2647,1.46538 3.8633,1.46538 1.5986,0 3.064,-0.39965 4.5293,-1.19895 l 0.5329,1.73182 c -1.7318,0.7993 -3.4636,1.19895 -5.3287,1.19895 -2.2646,0 -3.9965,-0.66609 -5.3286,-2.13147 -1.3322,-1.46539 -1.9983,-3.46364 -1.9983,-5.86154 0,-2.53112 0.6661,-4.52937 1.8651,-5.86154 1.3321,-1.46538 3.0639,-2.13147 5.1954,-2.13147 2.1315,0 3.8633,0.66609 4.929,1.99826 1.199,1.33216 1.7318,3.33041 1.7318,5.86153 0,0.26644 0,0.53287 0,0.93252 h -11.5898 m 0,-1.73182 h 9.4584 c 0,-1.73182 -0.3997,-3.06398 -1.199,-3.9965 -0.7993,-0.93252 -1.9982,-1.46539 -3.3304,-1.46539 -1.4654,0 -2.6643,0.53287 -3.5968,1.46539 -0.9326,0.93252 -1.3322,2.26468 -1.3322,3.9965"
   class="style0"
   id="path22"
   style="fill:#000000" /><path
   inkscape:connector-curvature="0"
   d="m 2005.0161,177.67081 c -1.7318,0 -3.064,0.53287 -4.1297,1.5986 -0.9326,1.06574 -1.4654,2.66434 -1.4654,4.52937 0,1.86504 0.5328,3.46364 1.5986,4.52937 1.0657,1.06574 2.3979,1.73182 3.9965,1.73182 1.3321,0 2.6643,-0.39965 3.9965,-1.06573 l 0.5328,1.73182 c -1.4653,0.66608 -3.0639,1.06573 -4.6625,1.06573 -2.2647,0 -4.1298,-0.66608 -5.5952,-2.13147 -1.4653,-1.46538 -2.1314,-3.46363 -2.1314,-5.86154 0,-2.53112 0.6661,-4.52937 1.9982,-5.86153 1.3322,-1.46539 3.1972,-2.13147 5.7284,-2.13147 1.5986,0 3.1972,0.39965 4.6625,1.06573 l -0.5328,1.86504 c -1.3322,-0.66609 -2.6644,-1.06574 -3.9965,-1.06574"
   class="style0"
   id="path24"
   style="fill:#000000" /><path
   inkscape:connector-curvature="0"
   d="m 2023.4,171.00997 v 2.13147 h 2.2647 v -2.13147 H 2023.4 z m -9.0588,0 v 5.59511 h -1.865 v 1.73182 h 1.865 v 8.52587 c 0,1.73182 0.3997,3.06399 1.0658,3.73007 0.6661,0.66608 1.5986,1.06573 3.1972,1.06573 1.1989,0 1.5986,0 2.5311,-0.13321 l 0,-1.73182 c -0.7993,0.13322 -1.3322,0 -2.2647,0 -1.0657,0 -1.4654,-0.26643 -1.7318,-0.66608 -0.3997,-0.53287 -0.5329,-1.46539 -0.5329,-2.79756 v -8.12622 h 6.7941 v 13.32168 h 2.2647 v -15.18672 l -9.0588,0 v -5.5951 h -2.2647 z"
   class="style0"
   id="path26"
   style="fill:#000000" /><path
   inkscape:connector-curvature="0"
   d="m 2035.2563,177.67081 c -1.7318,0 -3.064,0.53287 -4.1297,1.5986 -0.9326,1.06574 -1.4654,2.66434 -1.4654,4.52937 0,1.86504 0.5328,3.46364 1.5986,4.52937 1.0657,1.06574 2.3979,1.73182 3.9965,1.73182 1.3322,0 2.6643,-0.39965 3.9965,-1.06573 l 0.5329,1.73182 c -1.4654,0.66608 -3.064,1.06573 -4.6626,1.06573 -2.2647,0 -4.1298,-0.66608 -5.5951,-2.13147 -1.4654,-1.46538 -2.1315,-3.46363 -2.1315,-5.86154 0,-2.53112 0.6661,-4.52937 1.9982,-5.86153 1.3322,-1.46539 3.1972,-2.13147 5.7284,-2.13147 1.5986,0 3.1972,0.39965 4.6626,1.06573 l -0.5329,1.86504 c -1.3322,-0.66609 -2.6643,-1.06574 -3.9965,-1.06574"
   class="style0"
   id="path28"
   style="fill:#000000" /><path
   inkscape:connector-curvature="0"
   d="m 2048.8444,175.93899 c 2.1315,0 3.7301,0.39965 4.6626,1.33217 0.9325,0.93252 1.4654,2.3979 1.4654,4.39616 v 5.86153 c 0,1.46539 0.1332,2.79756 0.3996,4.12972 h -2.1315 c -0.1332,-0.93251 -0.2664,-1.86503 -0.2664,-2.79755 h 0 c -0.5329,0.93252 -1.3322,1.73182 -2.2647,2.26469 -1.0657,0.53286 -2.1314,0.7993 -3.4636,0.7993 -1.4654,0 -2.5311,-0.39965 -3.4636,-1.19895 -0.7993,-0.7993 -1.3322,-1.86504 -1.3322,-3.33042 0,-1.73182 0.7993,-3.06399 2.2647,-4.12972 1.4654,-1.06574 3.5968,-1.46539 6.3944,-1.46539 h 1.5986 v -0.13321 c 0,-1.46539 -0.2665,-2.53112 -0.7993,-3.06399 -0.5329,-0.53287 -1.5986,-0.93252 -3.064,-0.93252 -1.865,0 -3.5969,0.39965 -5.1955,1.33217 l -0.3996,-1.73182 c 1.5986,-0.93252 3.4636,-1.46538 5.5951,-1.46538 m -4.2629,11.45664 c 0,0.93252 0.2664,1.5986 0.7993,2.13147 0.5328,0.53287 1.3321,0.7993 2.2646,0.7993 1.3322,0 2.5312,-0.53287 3.5969,-1.46538 1.0657,-0.93252 1.4654,-2.26469 1.4654,-3.59686 v -1.73182 h -1.5986 c -2.1315,0 -3.7301,0.39965 -4.7958,1.06574 -1.0658,0.66608 -1.7318,1.5986 -1.7318,2.79755"
   class="style0"
   id="path30"
   style="fill:#000000" /><path
   inkscape:connector-curvature="0"
   d="m 2059.2353,191.65857 v -20.6486 h 2.2647 v 20.51539 h -2.2647"
   class="style0"
   id="path32"
   style="fill:#000000" />
</svg>